<svg xmlns="http://www.w3.org/2000/svg" viewBox="0 0 960 680" role="img" aria-label="Marketing campaign board">
  <rect width="960" height="680" rx="32" fill="#fff7ed"/>
  <rect x="76" y="72" width="808" height="536" rx="26" fill="#ffffff" stroke="#f3d4d8" stroke-width="6"/>
  <rect x="122" y="118" width="340" height="460" rx="20" fill="#1e293b"/>
  <circle cx="216" cy="220" r="72" fill="#e85d75"/>
  <circle cx="308" cy="304" r="48" fill="#f59e0b"/>
  <path d="M170 420h230M170 470h172M170 520h206" stroke="#fff7ed" stroke-width="22" stroke-linecap="round"/>
  <rect x="520" y="126" width="254" height="52" rx="26" fill="#fff1f2"/>
  <rect x="520" y="222" width="312" height="36" rx="18" fill="#e85d75"/>
  <rect x="520" y="292" width="226" height="32" rx="16" fill="#f59e0b"/>
  <rect x="520" y="360" width="290" height="32" rx="16" fill="#f3d4d8"/>
  <path d="M548 480c48-94 112-94 162 0 22-42 54-58 96-22" fill="none" stroke="#1e293b" stroke-width="16" stroke-linecap="round" stroke-linejoin="round"/>
  <text x="648" y="168" text-anchor="middle" font-family="Arial, sans-serif" font-size="28" font-weight="700" fill="#e85d75">Campaign Portfolio</text>
</svg>
